<svg id="Calque_1" data-name="Calque 1" xmlns="http://www.w3.org/2000/svg" viewBox="0 0 532 532">
  <defs>
    <style>
      .cls-1 {
        fill: #202222;
      }

      .cls-2 {
        fill: none;
        stroke: #837f79;
        stroke-miterlimit: 10;
        stroke-width: 20px;
      }

      .cls-3 {
        fill: #b2c1c0;
      }

      .cls-4 {
        fill: #e8e8e8;
      }

      .cls-5 {
        fill: #699635;
      }

      .cls-6 {
        fill: #83bf4f;
      }

      .cls-7 {
        fill: #ed4c5c;
      }

      .cls-8 {
        fill: #c7e755;
      }

      .cls-9 {
        fill: #3e4347;
      }

      .cls-10 {
        fill: #94989b;
      }

      .cls-11 {
        opacity: 0.5;
        isolation: isolate;
      }

      .cls-12 {
        fill: #89664c;
      }
    </style>
  </defs>
  <rect class="cls-1" x="10" y="10" width="512" height="512"/>
  <g>
    <rect class="cls-2" x="10" y="10" width="512" height="512"/>
    <line class="cls-2" x1="10" y1="351.33" x2="522" y2="351.33"/>
    <line class="cls-2" x1="10" y1="180.67" x2="522" y2="180.67"/>
    <line class="cls-2" x1="351.33" y1="10" x2="351.33" y2="522"/>
    <line class="cls-2" x1="180.67" y1="10" x2="180.67" y2="522"/>
  </g>
  <g>
    <path class="cls-3" d="M363.7,248.17c0,27.07,28.21,58.8,63,58.8s63-31.73,63-58.8Z" transform="translate(10 10)"/>
    <path class="cls-4" d="M489.7,248.17c0,17.32-28.2,31.36-63,31.36s-63-14-63-31.36,28.21-31.35,63-31.35S489.7,230.86,489.7,248.17Z" transform="translate(10 10)"/>
    <path class="cls-3" d="M426.7,275.61c-32,0-59.06-12.56-59.06-27.44s27.05-27.43,59.06-27.43,59.06,12.56,59.06,27.43S458.72,275.61,426.7,275.61Z" transform="translate(10 10)"/>
    <path class="cls-5" d="M385.84,214c.2,3.47,1.81,15.07.46,20.32C395.33,236.08,388.44,218.61,385.84,214Z" transform="translate(10 10)"/>
    <path class="cls-6" d="M476.36,237c4.28-9.36-2.41-19.15-6.6-13.43s-.95,9.29-11.76,7.27c-2.4-3.79,3.42-15.75,0-17.89-5.43-3.43-5.49,9.56-11.77,2.12s-6.55,9.89-15.87,9.89c-4.68,0,2-13.47-8.53-16.2s-7.48,9-20.11,2.24-19.1,3.43-13.31,7.67,1,12.85.27,16c-7.07-3.21-6.68,10.88-6.57,13.15-5.05,1.54-13.26,5.13-13.52,5.25,5.08,12.66,29.61,22.59,58.08,22.59,32,0,59.06-12.56,59.06-27.44C485.76,233,469.33,252.28,476.36,237Z" transform="translate(10 10)"/>
    <path class="cls-5" d="M440,253.89c5.19-10.79-7.62-6.28-12.34-1.7v0c-.17-7.67,3.92-12.68,7.51-17.85-5.92,4.16-12.27,8.82-19.13,11.2,4.07,4.52,6.15,10.54,6.93,16.54,16.85,1.58,13,9.34,12.17,13.26C455.14,273.92,434.83,264.54,440,253.89Z" transform="translate(10 10)"/>
    <path class="cls-7" d="M395.76,227.07c-3.26,3.17-4.33,7.33-2.4,9.3s6.15,1,9.4-2.16,4.34-7.32,2.4-9.3S399,223.91,395.76,227.07Z" transform="translate(10 10)"/>
    <path class="cls-7" d="M440.14,265.29c-3.26,3.17-4.33,7.33-2.39,9.3s6.14,1,9.4-2.15,4.33-7.33,2.39-9.31S443.4,262.13,440.14,265.29Z" transform="translate(10 10)"/>
    <path class="cls-5" d="M414.41,221.37c-8.29.43-12,21-17.91,19.72,4.91,4.45,7.31,11.14,7.31,17.74,1.32.25,3.23-3.18,4.19.38C406.47,248.07,406.9,235.76,414.41,221.37Z" transform="translate(10 10)"/>
    <path class="cls-7" d="M448.56,228c2.14,4,1.91,8.28-.53,9.58s-6.17-.88-8.31-4.87-1.92-8.29.52-9.59S446.41,224,448.56,228Z" transform="translate(10 10)"/>
    <path class="cls-5" d="M464.76,231.44c-17.85-2.07-20.62-2.46-5.6,12,3.9,5-11.21,15.21-16.64,16.21,7,12.75,8.29,14,17.94,10.84,13.42-4.39,6.77-19.73,13-16.59C470,249.23,451.07,247.08,464.76,231.44Z" transform="translate(10 10)"/>
    <path class="cls-8" d="M476.84,253.55c-3.23-.62-6.61-5.91-10.28-4.13-3.12,1.49-3.45,9.49-4.73,12.54-1.47,3.51-6.23,7.83-9.17,2.57-.66-1.22,8.41-6.74,9.48-9.14,2.09-4.69-2.28-5.2-1.82-8.06,1.51-9.34-21.57-18.69-.88-15.21,11.8,2,9-12.1,14.39-8.87,10.4,6.21-7.81,21.44,3.9,21.58C477,247.71,477.52,250.69,476.84,253.55Zm-18.51-6.27c-.73,3.75-4.95,4.59-8.05,2.81-6-3.45-2.81-15.51-10.24-17.32-9.08-2.23-20.81,13.11-22.55,11.39-2.17-2.15,2.34-11.56,1.6-17.78-1.88-15.79-14.56-.47-19.44,12.24-1,2.53-8.82-4.06-8.82-4.06,4.07-16.79-5.38-16.51-2.59-21.85,6.17-11.77,15.11,11,27.61-1.39,13.42-13.28,8.34,29.67,21.07,11.56,11.61-16.52,9.62-2.85,12.13-3.66,4.4-1.41,11.88-15.56,7.91,10.38C432.08,225.17,459.73,240.09,458.33,247.28Zm-10,8.53c-.25.25-5.38,3.86-6.32.41-.72-2.66,2.11-5.65.41-8-2.84-4-10.8-.15-13.66,1.87-1.64,1.15-5.86,5-2.83,7,2.39,1.52,5.79.59,7.93,2.72,1.75,1.72,2.13,4.59-.93,3.47-3.87-1.41-7.63-3.18-11.78-1.72-2.41.85-8,8.89-10.65,7.35-1.54-.9-.77-6.6-1-8.1-.62-4.63-4.07-3.85-7.19-1.95-1.24.76-4.95,3.53-6.51,2.51s-.6-5.54-.44-7c1-8.86-4.82-9.56-12.29-7.61-.06-2.65-.16-13.26,4.83-11.42,3,1.09,10.49,10,13.19,4.82,2.9-5.55,16-29.71,16-11.54,0,5-4.43,15.37-.89,17.75,3.11,2.1,11.22-6.52,13.14-7.79,5.25-3.47,11.11-6.72,13.82,1,1.82,5.17,2.37,11.86,8.75,13.2A34,34,0,0,0,448.32,255.81ZM475.54,242c-.39-2.17,4.6-7.28,3.47-14.5-1-6.45-8.86-10.41-11.14-2.8-2.06,6.88-8.82,5.27-8.82,5.27,4.38-16.68,2.14-24.86-7.65-14.92-5.08,5.15-.44-17.38-16.45,6.57-8.2,12.27-4.8-28-19.61-13.31-11.85,11.72-20.89-11-28.54,2.69-4,7.15,4.51,8.1,2.24,22,0,0-8.85-5.2-7.94,12.27.17,3.15-15.52,3.7-12.06,8.69,3.48-1.48,26-11.76,24.69-2.16-.39,2.79-2.37,12,2.93,11.62,5.75-.42,10.87-9,11.08.75.14,7.45,4,7.91,9.4,3.33,1.53-1.3,2.59-3.36,4.52-4.09,3.79-1.41,7.34.53,10.86,1.78,6.66,2.35,4.73-6.66.17-8.35-.81-.3-6-1.08-5.75-1.83.77-2.42,3.73-4.07,5.87-5a14.37,14.37,0,0,1,6-1.36c3,.11,1.85,2,1.34,4.19-.61,2.57-.2,6,2.68,7,3.39,1.09,6.05-2,8.31-3.95,1.66-1.44,12.9-8.4,9.05-1-2.23,4.33-13.44,5.62-8.34,11.93,3.28,4.06,8,2.2,10.47-1.55,2-3.09,3-6.8,3.74-10.38.62-2.83.85-4.55,3.84-3.07,4,2,9,6.56,9.26-.77.21-4.86,2.14-13.83,6.43-5.28C484.07,234.4,476.06,244.91,475.54,242Z" transform="translate(10 10)"/>
    <path class="cls-7" d="M377.62,251.16c3.26,3.16,4.34,7.32,2.4,9.3s-6.14,1-9.4-2.16-4.33-7.33-2.39-9.3S374.37,248,377.62,251.16Z" transform="translate(10 10)"/>
  </g>
  <g>
    <path class="cls-3" d="M193,77.57c0,27.07,28.21,58.8,63,58.8s63-31.73,63-58.8Z" transform="translate(10 10)"/>
    <path class="cls-4" d="M319,77.57c0,17.32-28.2,31.36-63,31.36s-63-14-63-31.36,28.21-31.35,63-31.35S319,60.26,319,77.57Z" transform="translate(10 10)"/>
    <path class="cls-3" d="M256,105c-32,0-59.06-12.56-59.06-27.44S224,50.14,256,50.14s59.06,12.56,59.06,27.43S288,105,256,105Z" transform="translate(10 10)"/>
    <path class="cls-5" d="M215.14,43.4c.2,3.47,1.81,15.07.46,20.32C224.63,65.48,217.74,48,215.14,43.4Z" transform="translate(10 10)"/>
    <path class="cls-6" d="M305.66,66.35c4.28-9.36-2.41-19.15-6.6-13.43s-.95,9.29-11.76,7.27c-2.4-3.79,3.42-15.75,0-17.89-5.43-3.43-5.49,9.56-11.77,2.12s-6.55,9.89-15.87,9.89c-4.68,0,2-13.47-8.53-16.2s-7.48,9-20.11,2.24S212,43.78,217.74,48s1,12.85.27,16c-7.07-3.21-6.68,10.88-6.57,13.15-5.05,1.54-13.26,5.13-13.52,5.25C203,95.08,227.53,105,256,105c32,0,59.06-12.56,59.06-27.44C315.06,62.43,298.63,81.68,305.66,66.35Z" transform="translate(10 10)"/>
    <path class="cls-5" d="M269.26,83.29c5.19-10.79-7.62-6.28-12.34-1.7v0c-.17-7.67,3.92-12.68,7.51-17.85-5.92,4.16-12.27,8.82-19.13,11.2,4.07,4.52,6.15,10.54,6.93,16.54,16.85,1.58,13,9.34,12.17,13.26C284.44,103.32,264.13,93.94,269.26,83.29Z" transform="translate(10 10)"/>
    <path class="cls-7" d="M225.06,56.47c-3.26,3.17-4.33,7.33-2.4,9.3s6.15,1,9.4-2.16,4.34-7.32,2.4-9.3S228.31,53.31,225.06,56.47Z" transform="translate(10 10)"/>
    <path class="cls-7" d="M269.44,94.69c-3.26,3.17-4.33,7.33-2.39,9.3s6.14,1,9.4-2.15,4.33-7.33,2.39-9.31S272.7,91.53,269.44,94.69Z" transform="translate(10 10)"/>
    <path class="cls-5" d="M243.71,50.77c-8.29.43-12,21-17.91,19.72,4.91,4.45,7.31,11.14,7.31,17.74,1.32.25,3.23-3.18,4.19.38C235.77,77.47,236.2,65.16,243.71,50.77Z" transform="translate(10 10)"/>
    <path class="cls-7" d="M277.86,57.43c2.14,4,1.91,8.28-.53,9.58s-6.17-.88-8.31-4.87-1.92-8.29.52-9.59S275.71,53.43,277.86,57.43Z" transform="translate(10 10)"/>
    <path class="cls-5" d="M294.06,60.84c-17.85-2.07-20.62-2.46-5.6,12,3.9,5-11.21,15.21-16.64,16.21,7,12.75,8.29,14,17.94,10.84,13.42-4.39,6.77-19.73,13-16.59C299.27,78.63,280.37,76.48,294.06,60.84Z" transform="translate(10 10)"/>
    <path class="cls-8" d="M306.14,83c-3.23-.62-6.61-5.91-10.28-4.13-3.12,1.49-3.45,9.49-4.73,12.54-1.47,3.51-6.23,7.83-9.17,2.57-.66-1.22,8.41-6.74,9.48-9.14,2.09-4.69-2.28-5.2-1.82-8.06,1.51-9.34-21.57-18.69-.88-15.21,11.8,2,9-12.1,14.39-8.87,10.4,6.21-7.81,21.44,3.9,21.58C306.33,77.11,306.82,80.09,306.14,83Zm-18.51-6.27c-.73,3.75-4.95,4.59-8.05,2.81-6-3.45-2.81-15.51-10.24-17.32-9.08-2.23-20.81,13.11-22.55,11.39-2.17-2.15,2.34-11.56,1.6-17.78C246.51,40,233.83,55.31,229,68c-1,2.53-8.82-4.06-8.82-4.06,4.07-16.79-5.38-16.51-2.59-21.85,6.17-11.77,15.11,11,27.61-1.39,13.42-13.28,8.34,29.67,21.07,11.56,11.61-16.52,9.62-2.85,12.13-3.66,4.4-1.41,11.88-15.56,7.91,10.38C261.38,54.57,289,69.49,287.63,76.68Zm-10,8.53c-.25.25-5.38,3.86-6.32.41-.72-2.66,2.11-5.65.41-8-2.84-4-10.8-.15-13.66,1.87-1.64,1.15-5.86,5-2.83,7,2.39,1.52,5.79.59,7.93,2.72,1.75,1.72,2.13,4.59-.93,3.47-3.87-1.41-7.63-3.18-11.78-1.72-2.41.85-8,8.89-10.65,7.35-1.54-.9-.77-6.6-1-8.1-.62-4.63-4.07-3.85-7.19-2-1.24.76-4.95,3.53-6.51,2.51s-.6-5.54-.44-7c1-8.86-4.82-9.56-12.29-7.61-.06-2.65-.16-13.26,4.83-11.42,3,1.09,10.49,10,13.19,4.82,2.9-5.55,16-29.71,16-11.54,0,5-4.43,15.37-.89,17.75,3.11,2.1,11.22-6.52,13.14-7.79,5.25-3.47,11.11-6.72,13.82,1,1.82,5.17,2.37,11.86,8.75,13.2A34,34,0,0,0,277.62,85.21Zm27.22-13.83c-.39-2.17,4.6-7.28,3.47-14.5-1-6.45-8.86-10.41-11.14-2.8-2.06,6.88-8.82,5.27-8.82,5.27,4.38-16.68,2.14-24.86-7.65-14.92-5.08,5.15-.44-17.38-16.45,6.57-8.2,12.27-4.8-28-19.61-13.31-11.85,11.72-20.89-11-28.54,2.69-4,7.15,4.51,8.1,2.24,22,0,0-8.85-5.2-7.94,12.27.17,3.15-15.52,3.7-12.06,8.69,3.48-1.48,26-11.76,24.69-2.16-.39,2.79-2.37,12,2.93,11.62,5.75-.42,10.87-9,11.08.75.14,7.45,4,7.91,9.4,3.33,1.53-1.3,2.59-3.36,4.52-4.09,3.79-1.41,7.34.53,10.86,1.78,6.66,2.35,4.73-6.66.17-8.35-.81-.3-6-1.08-5.75-1.83.77-2.42,3.73-4.07,5.87-5a14.37,14.37,0,0,1,6-1.36c3,.11,1.85,2,1.34,4.19-.61,2.57-.2,6,2.68,7,3.39,1.09,6.05-2,8.31-3.95,1.66-1.44,12.9-8.4,9.05-1-2.23,4.33-13.44,5.62-8.34,11.93,3.28,4.06,8,2.2,10.47-1.55,2-3.09,3-6.8,3.74-10.38.62-2.83.85-4.55,3.84-3.07,4,2,8.95,6.56,9.26-.77.21-4.86,2.14-13.83,6.43-5.28C313.37,63.8,305.36,74.31,304.84,71.38Z" transform="translate(10 10)"/>
    <path class="cls-7" d="M206.92,80.56c3.26,3.16,4.34,7.32,2.4,9.3s-6.14,1-9.4-2.16-4.33-7.33-2.39-9.3S203.67,77.39,206.92,80.56Z" transform="translate(10 10)"/>
  </g>
  <g>
    <path class="cls-3" d="M22.3,77.57c0,27.07,28.21,58.8,63,58.8s63-31.73,63-58.8Z" transform="translate(10 10)"/>
    <path class="cls-4" d="M148.3,77.57c0,17.32-28.2,31.36-63,31.36s-63-14-63-31.36,28.21-31.35,63-31.35S148.3,60.26,148.3,77.57Z" transform="translate(10 10)"/>
    <path class="cls-3" d="M85.3,105c-32,0-59.06-12.56-59.06-27.44S53.29,50.14,85.3,50.14s59.06,12.56,59.06,27.43S117.32,105,85.3,105Z" transform="translate(10 10)"/>
    <path class="cls-5" d="M44.44,43.4c.2,3.47,1.81,15.07.46,20.32C53.93,65.48,47,48,44.44,43.4Z" transform="translate(10 10)"/>
    <path class="cls-6" d="M135,66.35c4.28-9.36-2.41-19.15-6.6-13.43s-1,9.29-11.76,7.27c-2.4-3.79,3.42-15.75,0-17.89-5.43-3.43-5.49,9.56-11.77,2.12S98.31,54.31,89,54.31c-4.68,0,2-13.47-8.53-16.2s-7.48,9-20.11,2.24S41.25,43.78,47,48s1,12.85.27,16c-7.07-3.21-6.68,10.88-6.57,13.15-5.05,1.54-13.26,5.13-13.52,5.25C32.3,95.08,56.83,105,85.3,105c32,0,59.06-12.56,59.06-27.44C144.36,62.43,127.93,81.68,135,66.35Z" transform="translate(10 10)"/>
    <path class="cls-5" d="M98.56,83.29c5.19-10.79-7.62-6.28-12.34-1.7v0c-.17-7.67,3.92-12.68,7.51-17.85-5.92,4.16-12.27,8.82-19.13,11.2,4.07,4.52,6.15,10.54,6.93,16.54,16.85,1.58,13,9.34,12.17,13.26C113.74,103.32,93.43,93.94,98.56,83.29Z" transform="translate(10 10)"/>
    <path class="cls-7" d="M54.36,56.47C51.1,59.64,50,63.8,52,65.77s6.15,1,9.4-2.16,4.34-7.32,2.4-9.3S57.61,53.31,54.36,56.47Z" transform="translate(10 10)"/>
    <path class="cls-7" d="M98.74,94.69c-3.26,3.17-4.33,7.33-2.39,9.3s6.14,1,9.4-2.15,4.33-7.33,2.39-9.31S102,91.53,98.74,94.69Z" transform="translate(10 10)"/>
    <path class="cls-5" d="M73,50.77c-8.29.43-12,21-17.91,19.72,4.91,4.45,7.31,11.14,7.31,17.74,1.32.25,3.23-3.18,4.19.38C65.07,77.47,65.5,65.16,73,50.77Z" transform="translate(10 10)"/>
    <path class="cls-7" d="M107.16,57.43c2.14,4,1.91,8.28-.53,9.58s-6.17-.88-8.31-4.87-1.92-8.29.52-9.59S105,53.43,107.16,57.43Z" transform="translate(10 10)"/>
    <path class="cls-5" d="M123.36,60.84c-17.85-2.07-20.62-2.46-5.6,12,3.9,5-11.21,15.21-16.64,16.21,7,12.75,8.29,14,17.94,10.84,13.42-4.39,6.77-19.73,13-16.59C128.57,78.63,109.67,76.48,123.36,60.84Z" transform="translate(10 10)"/>
    <path class="cls-8" d="M135.44,83c-3.23-.62-6.61-5.91-10.28-4.13-3.12,1.49-3.45,9.49-4.73,12.54-1.47,3.51-6.23,7.83-9.17,2.57-.66-1.22,8.41-6.74,9.48-9.14,2.09-4.69-2.28-5.2-1.82-8.06C120.43,67.39,97.35,58,118,61.52c11.8,2,9-12.1,14.39-8.87,10.4,6.21-7.81,21.44,3.9,21.58C135.63,77.11,136.12,80.09,135.44,83Zm-18.51-6.27c-.73,3.75-5,4.59-8.05,2.81-6-3.45-2.81-15.51-10.24-17.32-9.08-2.23-20.81,13.11-22.55,11.39-2.17-2.15,2.34-11.56,1.6-17.78C75.81,40,63.13,55.31,58.25,68c-1,2.53-8.82-4.06-8.82-4.06,4.07-16.79-5.38-16.51-2.59-21.85C53,30.34,62,53.09,74.45,40.72c13.42-13.28,8.34,29.67,21.07,11.56,11.61-16.52,9.62-2.85,12.13-3.66,4.4-1.41,11.88-15.56,7.91,10.38C90.68,54.57,118.33,69.49,116.93,76.68Zm-10,8.53c-.25.25-5.38,3.86-6.32.41-.72-2.66,2.11-5.65.41-8-2.84-4-10.8-.15-13.66,1.87-1.64,1.15-5.86,5-2.83,7,2.39,1.52,5.79.59,7.93,2.72,1.75,1.72,2.13,4.59-.93,3.47-3.87-1.41-7.63-3.18-11.78-1.72-2.41.85-8,8.89-10.65,7.35-1.54-.9-.77-6.6-1-8.1-.62-4.63-4.07-3.85-7.19-2-1.24.76-5,3.53-6.51,2.51s-.6-5.54-.44-7c1-8.86-4.82-9.56-12.29-7.61-.06-2.65-.16-13.26,4.83-11.42,3,1.09,10.49,10,13.19,4.82,2.9-5.55,16-29.71,16-11.54,0,5-4.43,15.37-.89,17.75C77.91,77.87,86,69.25,87.94,68c5.25-3.47,11.11-6.72,13.82,1,1.82,5.17,2.37,11.86,8.75,13.2A34,34,0,0,0,106.92,85.21Zm27.22-13.83c-.39-2.17,4.6-7.28,3.47-14.5-1-6.45-8.86-10.41-11.14-2.8-2.06,6.88-8.82,5.27-8.82,5.27C122,42.67,119.79,34.49,110,44.43c-5.08,5.15-.44-17.38-16.45,6.57-8.2,12.27-4.8-28-19.61-13.31-11.85,11.72-20.89-11-28.54,2.69-4,7.15,4.51,8.1,2.24,22,0,0-8.85-5.2-7.94,12.27.17,3.15-15.52,3.7-12.06,8.69,3.48-1.48,26-11.76,24.69-2.16-.39,2.79-2.37,12,2.93,11.62,5.75-.42,10.87-9,11.08.75.14,7.45,4,7.91,9.4,3.33,1.53-1.3,2.59-3.36,4.52-4.09,3.79-1.41,7.34.53,10.86,1.78,6.66,2.35,4.73-6.66.17-8.35-.81-.3-6-1.08-5.75-1.83.77-2.42,3.73-4.07,5.87-5a14.37,14.37,0,0,1,6-1.36c3,.11,1.85,2,1.34,4.19-.61,2.57-.2,6,2.68,7,3.39,1.09,6-2,8.31-3.95,1.66-1.44,12.9-8.4,9.05-1-2.23,4.33-13.44,5.62-8.34,11.93,3.28,4.06,8,2.2,10.47-1.55,2-3.09,3-6.8,3.74-10.38.62-2.83.85-4.55,3.84-3.07,4,2,8.95,6.56,9.26-.77.21-4.86,2.14-13.83,6.43-5.28C142.67,63.8,134.66,74.31,134.14,71.38Z" transform="translate(10 10)"/>
    <path class="cls-7" d="M36.22,80.56c3.26,3.16,4.34,7.32,2.4,9.3s-6.14,1-9.4-2.16-4.33-7.33-2.39-9.3S33,77.39,36.22,80.56Z" transform="translate(10 10)"/>
  </g>
  <g>
    <path class="cls-9" d="M295.89,224.08c-4.79-20.82-25.56-29.65-41.54-29.65s-36.75,8.83-41.54,29.65-31.92,30.77-17.05,51.17c10.81,14.81,42.84,45.18,58.59,45.18s47.78-30.37,58.58-45.18C327.81,254.85,300.68,244.9,295.89,224.08Z" transform="translate(10 10)"/>
    <path class="cls-10" d="M295.3,242.73c-14.76-9.84-30.71,2.1-41,2.1s-26.18-11.94-40.95-2.1,2.24,31.16,18.9,25.2c22-7.88,4.57,9,2,15.75s-5.12,26.25,20.08,26.25,22.68-19.54,20.08-26.25-20-22.05,2-15.75C293.77,272.91,310.06,252.58,295.3,242.73Z" transform="translate(10 10)"/>
    <g class="cls-11">
      <path class="cls-10" d="M287.63,229.13c-9.83-3.74-20.22,3.33-33.28,3.33s-23.45-7.07-33.28-3.33c-10.94,4.17,0,0,11.38,3.45s16.14,3.85,21.9,3.85,10.53-.4,21.9-3.85S298.57,233.3,287.63,229.13Z" transform="translate(10 10)"/>
    </g>
    <g class="cls-11">
      <path class="cls-10" d="M276.53,223.6c-6.55-2.81-13.48,2.5-22.18,2.5s-15.63-5.31-22.18-2.5c-7.3,3.14,0,0,7.58,2.59s10.76,2.89,14.6,2.89,7-.3,14.6-2.89S283.83,226.74,276.53,223.6Z" transform="translate(10 10)"/>
    </g>
    <path class="cls-10" d="M248.08,262.07c-5.13-2.37-3.22,5.47-13,8.88s-6.07,11.68,1,11.68c6.11,0,10.84.13,14.54-5S253.21,264.43,248.08,262.07Z" transform="translate(10 10)"/>
    <path class="cls-10" d="M273.59,271c-9.75-3.41-7.84-11.25-13-8.88s-6.29,10.46-2.58,15.57,8.43,5,14.54,5C279.65,282.63,283.43,274.39,273.59,271Z" transform="translate(10 10)"/>
    <path class="cls-9" d="M247,268.88c.26,3.27,1.44,10.46-5.47,10.7-6.09.22-7.76-6-.49-6.29A6.25,6.25,0,0,0,247,268.88Z" transform="translate(10 10)"/>
    <path class="cls-9" d="M261.69,268.88c-.26,3.27-1.44,10.46,5.47,10.7,6.09.22,7.77-6,.49-6.29A6.26,6.26,0,0,1,261.69,268.88Z" transform="translate(10 10)"/>
    <ellipse class="cls-9" cx="264.35" cy="303.13" rx="18.1" ry="1.05"/>
    <path class="cls-8" d="M235.45,262.09a12.4,12.4,0,0,0,12.6-12.18h-25.2A12.4,12.4,0,0,0,235.45,262.09Z" transform="translate(10 10)"/>
    <path class="cls-12" d="M235.45,256.76a6.2,6.2,0,0,0,6.3-6.09h-12.6A6.21,6.21,0,0,0,235.45,256.76Z" transform="translate(10 10)"/>
    <path class="cls-8" d="M285.85,249.91a12.61,12.61,0,0,1-25.2,0Z" transform="translate(10 10)"/>
    <path class="cls-12" d="M279.54,250.66a6.3,6.3,0,0,1-12.59,0Z" transform="translate(10 10)"/>
    <path class="cls-9" d="M295.3,250.34c0,.87-18.34,1.57-41,1.57s-40.95-.7-40.95-1.57,18.34-1.57,40.95-1.57S295.3,249.47,295.3,250.34Z" transform="translate(10 10)"/>
    <path class="cls-9" d="M191.35,263.73a44.31,44.31,0,0,0,8.93,24.63l1.84-4.13s.26,6.37,5.64,13.6l1.71-6.37s.26,9.65,8.66,18.77c0,0,.71-6.33,1.57-8.61a43.91,43.91,0,0,0,15.75,16.71s-2.92-5.37,3.51-9.58C239,308.75,208.37,263.73,191.35,263.73Z" transform="translate(10 10)"/>
    <path class="cls-9" d="M317.35,263.73a44.31,44.31,0,0,1-8.93,24.63l-1.84-4.13s-.26,6.37-5.64,13.6l-1.71-6.37s-.26,9.65-8.65,18.77c0,0-.73-6.33-1.59-8.61a43.83,43.83,0,0,1-15.74,16.71s2.91-5.37-3.51-9.58C269.74,308.75,300.33,263.73,317.35,263.73Z" transform="translate(10 10)"/>
  </g>
  <g>
    <path class="cls-9" d="M297.54,222.65C292.75,201.83,272,193,256,193s-36.74,8.83-41.54,29.65-31.92,30.77-17.05,51.17C208.22,288.63,240.25,319,256,319s47.78-30.37,58.59-45.18C329.46,253.42,302.33,243.47,297.54,222.65Z" transform="translate(10 10)"/>
    <path class="cls-10" d="M297,241.3c-14.76-9.84-30.71,2.1-40.95,2.1s-26.18-11.94-40.95-2.1,2.24,31.16,18.9,25.2c22.05-7.88,4.58,9,2,15.75S230.8,308.5,256,308.5s22.68-19.54,20.08-26.25-20-22.05,2-15.75C295.42,271.48,311.72,251.15,297,241.3Z" transform="translate(10 10)"/>
    <g class="cls-11">
      <path class="cls-10" d="M289.28,227.7C279.45,224,269.06,231,256,231s-23.45-7.08-33.28-3.34c-10.94,4.17,0,0,11.38,3.45S250.24,235,256,235s10.53-.4,21.9-3.85S300.22,231.87,289.28,227.7Z" transform="translate(10 10)"/>
    </g>
    <g class="cls-11">
      <path class="cls-10" d="M278.18,222.17c-6.55-2.81-13.47,2.5-22.18,2.5s-15.63-5.31-22.18-2.5c-7.3,3.14,0,0,7.58,2.59s10.76,2.89,14.6,2.89,7-.3,14.6-2.89S285.48,225.31,278.18,222.17Z" transform="translate(10 10)"/>
    </g>
    <path class="cls-10" d="M249.73,260.64c-5.13-2.37-3.21,5.47-13,8.88s-6.07,11.68,1,11.68c6.11,0,10.84.13,14.54-5S254.86,263,249.73,260.64Z" transform="translate(10 10)"/>
    <path class="cls-10" d="M275.24,269.52c-9.75-3.41-7.84-11.25-13-8.88s-6.29,10.46-2.58,15.57,8.43,5,14.54,5C281.3,281.2,285.08,273,275.24,269.52Z" transform="translate(10 10)"/>
    <path class="cls-9" d="M248.66,267.45c.26,3.27,1.44,10.46-5.47,10.7-6.09.22-7.76-6-.48-6.29A6.24,6.24,0,0,0,248.66,267.45Z" transform="translate(10 10)"/>
    <path class="cls-9" d="M263.34,267.45c-.26,3.27-1.44,10.46,5.47,10.7,6.09.22,7.77-6,.49-6.29A6.26,6.26,0,0,1,263.34,267.45Z" transform="translate(10 10)"/>
    <ellipse class="cls-9" cx="266" cy="301.7" rx="18.1" ry="1.05"/>
    <path class="cls-8" d="M237.1,260.66a12.41,12.41,0,0,0,12.61-12.18h-25.2A12.4,12.4,0,0,0,237.1,260.66Z" transform="translate(10 10)"/>
    <path class="cls-12" d="M237.1,255.33a6.2,6.2,0,0,0,6.3-6.09H230.8A6.21,6.21,0,0,0,237.1,255.33Z" transform="translate(10 10)"/>
    <path class="cls-8" d="M287.5,248.48a12.61,12.61,0,0,1-25.2,0Z" transform="translate(10 10)"/>
    <path class="cls-12" d="M281.2,249.23a6.3,6.3,0,0,1-12.6,0Z" transform="translate(10 10)"/>
    <path class="cls-9" d="M297,248.91c0,.87-18.34,1.58-40.95,1.58s-40.95-.71-40.95-1.58,18.34-1.57,40.95-1.57S297,248.05,297,248.91Z" transform="translate(10 10)"/>
    <path class="cls-9" d="M193,262.3a44.29,44.29,0,0,0,8.93,24.63l1.84-4.13s.26,6.37,5.64,13.6l1.71-6.37s.26,9.65,8.66,18.77c0,0,.71-6.33,1.58-8.61A43.83,43.83,0,0,0,237.1,316.9s-2.92-5.36,3.51-9.58C240.61,307.32,210,262.3,193,262.3Z" transform="translate(10 10)"/>
    <path class="cls-9" d="M319,262.3a44.32,44.32,0,0,1-8.92,24.63l-1.85-4.13s-.25,6.37-5.64,13.6l-1.7-6.37s-.27,9.65-8.66,18.77c0,0-.72-6.33-1.59-8.61A43.83,43.83,0,0,1,274.9,316.9s2.92-5.36-3.51-9.58C271.39,307.32,302,262.3,319,262.3Z" transform="translate(10 10)"/>
  </g>
  <g>
    <path class="cls-9" d="M126.54,222.65C121.75,201.83,101,193,85,193s-36.74,8.83-41.54,29.65-31.92,30.77-17,51.17C37.22,288.63,69.25,319,85,319s47.78-30.37,58.59-45.18C158.46,253.42,131.33,243.47,126.54,222.65Z" transform="translate(10 10)"/>
    <path class="cls-10" d="M126,241.3c-14.76-9.84-30.71,2.1-40.95,2.1s-26.18-11.94-40.95-2.1,2.24,31.16,18.9,25.2c22-7.88,4.58,9,2,15.75S59.8,308.5,85,308.5s22.68-19.54,20.08-26.25-20-22.05,2-15.75C124.42,271.48,140.72,251.15,126,241.3Z" transform="translate(10 10)"/>
    <g class="cls-11">
      <path class="cls-10" d="M118.28,227.7C108.45,224,98.06,231,85,231S61.55,224,51.72,227.7c-10.94,4.17,0,0,11.38,3.45S79.24,235,85,235s10.53-.4,21.9-3.85S129.22,231.87,118.28,227.7Z" transform="translate(10 10)"/>
    </g>
    <g class="cls-11">
      <path class="cls-10" d="M107.18,222.17c-6.55-2.81-13.47,2.5-22.18,2.5s-15.63-5.31-22.18-2.5c-7.3,3.14,0,0,7.58,2.59s10.76,2.89,14.6,2.89,7-.3,14.6-2.89S114.48,225.31,107.18,222.17Z" transform="translate(10 10)"/>
    </g>
    <path class="cls-10" d="M78.73,260.64c-5.13-2.37-3.21,5.47-13,8.88s-6.07,11.68,1,11.68c6.11,0,10.84.13,14.54-5S83.86,263,78.73,260.64Z" transform="translate(10 10)"/>
    <path class="cls-10" d="M104.24,269.52c-9.75-3.41-7.84-11.25-13-8.88S85,271.1,88.69,276.21s8.43,5,14.54,5C110.3,281.2,114.08,273,104.24,269.52Z" transform="translate(10 10)"/>
    <path class="cls-9" d="M77.66,267.45c.26,3.27,1.44,10.46-5.47,10.7-6.09.22-7.76-6-.48-6.29A6.24,6.24,0,0,0,77.66,267.45Z" transform="translate(10 10)"/>
    <path class="cls-9" d="M92.34,267.45c-.26,3.27-1.44,10.46,5.47,10.7,6.09.22,7.77-6,.49-6.29A6.26,6.26,0,0,1,92.34,267.45Z" transform="translate(10 10)"/>
    <ellipse class="cls-9" cx="95" cy="301.7" rx="18.1" ry="1.05"/>
    <path class="cls-8" d="M66.1,260.66a12.41,12.41,0,0,0,12.61-12.18H53.51A12.4,12.4,0,0,0,66.1,260.66Z" transform="translate(10 10)"/>
    <path class="cls-12" d="M66.1,255.33a6.2,6.2,0,0,0,6.3-6.09H59.8A6.21,6.21,0,0,0,66.1,255.33Z" transform="translate(10 10)"/>
    <path class="cls-8" d="M116.5,248.48a12.61,12.61,0,0,1-25.2,0Z" transform="translate(10 10)"/>
    <path class="cls-12" d="M110.2,249.23a6.3,6.3,0,0,1-12.6,0Z" transform="translate(10 10)"/>
    <path class="cls-9" d="M126,248.91c0,.87-18.34,1.58-40.95,1.58s-40.95-.71-40.95-1.58,18.34-1.57,41-1.57S126,248.05,126,248.91Z" transform="translate(10 10)"/>
    <path class="cls-9" d="M22,262.3a44.29,44.29,0,0,0,8.93,24.63l1.84-4.13s.26,6.37,5.64,13.6L40.12,290s.26,9.65,8.66,18.77c0,0,.71-6.33,1.58-8.61A43.83,43.83,0,0,0,66.1,316.9s-2.92-5.36,3.51-9.58C69.61,307.32,39,262.3,22,262.3Z" transform="translate(10 10)"/>
    <path class="cls-9" d="M148,262.3a44.32,44.32,0,0,1-8.92,24.63l-1.85-4.13s-.25,6.37-5.64,13.6l-1.7-6.37s-.27,9.65-8.66,18.77c0,0-.72-6.33-1.59-8.61A43.83,43.83,0,0,1,103.9,316.9s2.92-5.36-3.51-9.58C100.39,307.32,131,262.3,148,262.3Z" transform="translate(10 10)"/>
  </g>
  <g>
    <path class="cls-9" d="M126.87,393.3c-4.79-20.82-25.56-29.65-41.54-29.65s-36.74,8.83-41.54,29.65-31.92,30.77-17,51.17c10.81,14.81,42.84,45.18,58.59,45.18s47.78-30.37,58.59-45.18C158.79,424.07,131.66,414.12,126.87,393.3Z" transform="translate(10 10)"/>
    <path class="cls-10" d="M126.28,412c-14.76-9.84-30.71,2.1-40.95,2.1S59.15,402.11,44.38,412s2.24,31.16,18.9,25.2c22-7.88,4.58,9,2,15.75s-5.12,26.25,20.08,26.25S108,459.61,105.41,452.9s-20-22,2-15.75C124.75,442.13,141.05,421.8,126.28,412Z" transform="translate(10 10)"/>
    <g class="cls-11">
      <path class="cls-10" d="M118.61,398.35c-9.83-3.74-20.22,3.34-33.28,3.34s-23.45-7.08-33.28-3.34c-10.94,4.17,0,0,11.38,3.45s16.14,3.85,21.9,3.85,10.53-.4,21.9-3.85S129.55,402.52,118.61,398.35Z" transform="translate(10 10)"/>
    </g>
    <g class="cls-11">
      <path class="cls-10" d="M107.51,392.82C101,390,94,395.32,85.33,395.32S69.7,390,63.15,392.82c-7.3,3.14,0,0,7.58,2.59s10.76,2.89,14.6,2.89,7-.3,14.6-2.89S114.81,396,107.51,392.82Z" transform="translate(10 10)"/>
    </g>
    <path class="cls-10" d="M79.06,431.29c-5.13-2.37-3.21,5.47-13,8.88s-6.07,11.68,1,11.68c6.11,0,10.84.13,14.54-5S84.19,433.65,79.06,431.29Z" transform="translate(10 10)"/>
    <path class="cls-10" d="M104.57,440.17c-9.75-3.41-7.84-11.25-13-8.88S85.31,441.75,89,446.86s8.43,5,14.54,5C110.63,451.85,114.41,443.61,104.57,440.17Z" transform="translate(10 10)"/>
    <path class="cls-9" d="M78,438.1c.26,3.27,1.44,10.46-5.47,10.7-6.09.22-7.76-6-.48-6.29A6.24,6.24,0,0,0,78,438.1Z" transform="translate(10 10)"/>
    <path class="cls-9" d="M92.67,438.1c-.26,3.27-1.44,10.46,5.47,10.7,6.09.22,7.77-6,.49-6.29A6.26,6.26,0,0,1,92.67,438.1Z" transform="translate(10 10)"/>
    <ellipse class="cls-9" cx="95.33" cy="472.35" rx="18.1" ry="1.05"/>
    <path class="cls-8" d="M66.43,431.31A12.41,12.41,0,0,0,79,419.13H53.84A12.4,12.4,0,0,0,66.43,431.31Z" transform="translate(10 10)"/>
    <path class="cls-12" d="M66.43,426a6.2,6.2,0,0,0,6.3-6.09H60.13A6.21,6.21,0,0,0,66.43,426Z" transform="translate(10 10)"/>
    <path class="cls-8" d="M116.83,419.13a12.61,12.61,0,0,1-25.2,0Z" transform="translate(10 10)"/>
    <path class="cls-12" d="M110.53,419.88a6.3,6.3,0,0,1-12.6,0Z" transform="translate(10 10)"/>
    <path class="cls-9" d="M126.28,419.56c0,.87-18.34,1.58-40.95,1.58s-40.95-.71-40.95-1.58S62.72,418,85.33,418,126.28,418.7,126.28,419.56Z" transform="translate(10 10)"/>
    <path class="cls-9" d="M22.33,433a44.29,44.29,0,0,0,8.93,24.63l1.84-4.13s.26,6.37,5.64,13.6l1.71-6.37s.26,9.65,8.66,18.77c0,0,.71-6.33,1.58-8.61a43.83,43.83,0,0,0,15.74,16.71s-2.92-5.36,3.51-9.58C69.94,478,39.35,433,22.33,433Z" transform="translate(10 10)"/>
    <path class="cls-9" d="M148.33,433a44.32,44.32,0,0,1-8.92,24.63l-1.85-4.13s-.25,6.37-5.64,13.6l-1.7-6.37s-.27,9.65-8.66,18.77c0,0-.72-6.33-1.59-8.61a43.83,43.83,0,0,1-15.74,16.71s2.92-5.36-3.51-9.58C100.72,478,131.32,433,148.33,433Z" transform="translate(10 10)"/>
  </g>
</svg>
